<?xml version="1.0" encoding="UTF-8"?>
<svg version="1.1" xmlns="http://www.w3.org/2000/svg" width="800" height="800">
<path d="M0 0 C6.98762502 5.5980973 13.62448058 11.5773584 20.10546875 17.75 C21.00386475 18.60537354 21.00386475 18.60537354 21.92041016 19.47802734 C30.26073406 27.47828126 37.90599011 35.69466957 44.79052734 44.98193359 C46.13478875 46.78942359 47.50306002 48.57673612 48.875 50.36328125 C55.74184959 59.39835719 61.57318922 68.85132518 67.10546875 78.75 C67.48944824 79.42224609 67.87342773 80.09449219 68.26904297 80.78710938 C83.48368071 107.49220488 92.43843506 137.48727388 97.10546875 167.75 C97.28118912 168.86472183 97.45690948 169.97944366 97.63795471 171.12794495 C99.70499003 186.57583893 99.36409739 202.11104099 99.30825663 217.66252565 C99.29560508 221.79042165 99.29456757 225.91832174 99.29220581 230.04623413 C99.28603284 237.83363334 99.26967975 245.62097523 99.24950683 253.40834939 C99.22279648 263.95219143 99.21214132 274.49604957 99.2005024 285.03991699 C99.18179526 301.60998746 99.14192208 318.17993704 99.10546875 334.75 C128.80546875 334.75 158.50546875 334.75 189.10546875 334.75 C189.76546875 333.1 190.42546875 331.45 191.10546875 329.75 C193.55990959 326.24043172 196.3232882 323.00356289 199.10546875 319.75 C199.63011719 319.12738281 200.15476562 318.50476563 200.6953125 317.86328125 C212.8112705 304.6374645 232.59644581 295.83065459 250.28704834 294.51303101 C257.81068192 294.18849696 265.33148924 294.1802684 272.86083984 294.22851562 C275.53227793 294.24288346 278.20049927 294.24670559 280.87158203 294.22851562 C284.77799092 294.20364318 288.68339043 294.20683454 292.58984375 294.21875 C293.76826843 294.21065308 294.94669312 294.20255615 296.16082764 294.19421387 C308.18961574 294.32858975 318.35515506 297.2520992 327.10546875 305.75 C336.70290077 315.82349511 339.24597875 327.41291794 339.26660156 341.03344727 C339.27156647 341.83128128 339.27653137 342.6291153 339.28164673 343.4511261 C339.29616836 346.07289517 339.30305504 348.69460367 339.30859375 351.31640625 C339.31142113 352.21924788 339.3142485 353.1220895 339.31716156 354.05228996 C339.33211682 358.83409794 339.3413683 363.61587605 339.34570312 368.39770508 C339.35116961 373.30063457 339.3751696 378.20328382 339.40367508 383.10612583 C339.42243976 386.90775816 339.42751445 390.70932498 339.429039 394.51099968 C339.43203704 396.31644147 339.43996726 398.12188291 339.45322418 399.92727852 C339.56521728 416.35705237 338.79576221 430.9534151 327.2578125 443.80859375 C320.0095926 450.72937866 310.54811272 454.84141466 300.54931641 454.91113281 C299.4336026 454.92074036 298.31788879 454.9303479 297.16836548 454.94024658 C295.96425018 454.94449646 294.76013489 454.94874634 293.51953125 454.953125 C292.27102386 454.95882507 291.02251648 454.96452515 289.73617554 454.97039795 C287.0882402 454.97984933 284.44041816 454.98674427 281.79248047 454.99023438 C279.10223667 454.99459746 276.41231748 455.00840477 273.72216797 455.03125 C269.82119154 455.0620004 265.92061603 455.07231661 262.01953125 455.078125 C260.83565826 455.0904718 259.65178528 455.1028186 258.43203735 455.11553955 C236.00511751 455.05687208 216.02323887 446.39589294 200.0390625 430.83203125 C195.65299561 426.36445462 191.90972896 421.35852042 189.10546875 415.75 C159.40546875 415.42 129.70546875 415.09 99.10546875 414.75 C99.14027344 425.21589844 99.17507813 435.68179687 99.2109375 446.46484375 C99.22628703 453.14127831 99.24085549 459.81769987 99.25195312 466.49414062 C99.26966535 477.06425406 99.2903393 487.6342951 99.33178711 498.2043457 C99.36197581 505.90685688 99.38111052 513.6093086 99.38773423 521.31187731 C99.39159741 525.37884528 99.40047552 529.44564336 99.42265892 533.51255608 C99.74399628 594.88499738 84.63455297 653.78972396 46.10546875 702.75 C45.3475 703.719375 44.58953125 704.68875 43.80859375 705.6875 C38.22308631 712.65948092 32.25947934 719.27909503 26.10546875 725.75 C25.56760742 726.31654297 25.02974609 726.88308594 24.47558594 727.46679688 C16.78996221 735.50317986 8.82588761 742.76826937 -0.09716797 749.40576172 C-1.95303966 750.79375812 -3.78537058 752.2093555 -5.6171875 753.62890625 C-25.83314237 769.11480409 -47.5499383 776.12105954 -73.04345703 773.53173828 C-91.28870872 770.88810492 -106.69799293 760.9368722 -120.89453125 749.75 C-121.79945313 749.03972656 -122.704375 748.32945312 -123.63671875 747.59765625 C-131.04520879 741.66012728 -138.01419949 735.28427957 -144.89453125 728.75 C-146.13589844 727.57244141 -146.13589844 727.57244141 -147.40234375 726.37109375 C-153.05232237 720.86876265 -157.9852322 714.91311284 -162.89453125 708.75 C-163.84585938 707.61691406 -163.84585938 707.61691406 -164.81640625 706.4609375 C-175.9106242 693.12036963 -184.92772001 678.12281176 -192.89453125 662.75 C-193.28237793 662.00169922 -193.67022461 661.25339844 -194.06982422 660.48242188 C-212.23120903 624.93636557 -221.11711081 584.89520783 -221.00805664 545.07714844 C-221.00777384 543.64682517 -221.00793431 542.21650177 -221.00849915 540.78617859 C-221.0087835 536.94195745 -221.00294584 533.09776815 -220.99592519 529.25355434 C-220.98963085 525.22171126 -220.98908307 521.18986726 -220.98789978 517.15802002 C-220.98480427 509.54043813 -220.9766151 501.92287076 -220.96655029 494.30529523 C-220.95323209 483.99944162 -220.94787485 473.69358398 -220.94204807 463.38772392 C-220.93267383 447.17513842 -220.91274309 430.96258356 -220.89453125 414.75 C-250.59453125 414.75 -280.29453125 414.75 -310.89453125 414.75 C-311.55453125 416.4 -312.21453125 418.05 -312.89453125 419.75 C-324.67777535 437.63702983 -342.55917555 449.19830731 -363.30004883 453.8034668 C-369.65499683 455.04152233 -375.93377248 455.07400601 -382.390625 455.0859375 C-383.65995377 455.0925943 -384.92928253 455.0992511 -386.23707581 455.10610962 C-388.90892691 455.11618925 -391.58037029 455.12179888 -394.25219727 455.12060547 C-397.6455676 455.12040221 -401.03810117 455.14774726 -404.43127346 455.18214989 C-407.7093575 455.20995842 -410.98743923 455.20857246 -414.265625 455.2109375 C-415.46803329 455.22530853 -416.67044159 455.23967957 -417.9092865 455.25448608 C-428.10018892 455.19986858 -436.68703076 453.0033337 -444.89453125 446.75 C-446.13203125 445.9146875 -446.13203125 445.9146875 -447.39453125 445.0625 C-454.9471198 438.07635559 -459.65383743 428.3949711 -460.26806641 418.13500977 C-460.47415961 412.44476081 -460.4515161 406.75556731 -460.42578125 401.0625 C-460.4284806 398.952228 -460.43236669 396.84195723 -460.43737793 394.73168945 C-460.44325212 390.3239347 -460.43477719 385.91650573 -460.41601562 381.50878906 C-460.39322762 375.88361167 -460.40636188 370.2591979 -460.43030548 364.63404846 C-460.44481974 360.28090756 -460.44013171 355.92794511 -460.42979431 351.57479858 C-460.42714257 349.50173856 -460.43034159 347.42866188 -460.43971252 345.35562134 C-460.49105709 330.80760031 -459.75538331 318.34197942 -449.89453125 306.75 C-442.15009853 299.37087071 -433.03929159 294.67989475 -422.27832031 294.57299805 C-421.14904114 294.56016281 -420.01976196 294.54732758 -418.85626221 294.53410339 C-417.02668976 294.52302299 -417.02668976 294.52302299 -415.16015625 294.51171875 C-413.26121613 294.49961113 -413.26121613 294.49961113 -411.32391357 294.48725891 C-408.63729201 294.47341982 -405.95079294 294.46240603 -403.26416016 294.45483398 C-400.5389931 294.44604078 -397.8143471 294.42532667 -395.08935547 294.39331055 C-366.12752455 294.06028242 -366.12752455 294.06028242 -352.89453125 298.75 C-351.79906982 299.12809814 -350.7036084 299.50619629 -349.57495117 299.89575195 C-334.19001439 305.48420222 -318.52569681 318.09945008 -310.89453125 332.75 C-310.89453125 333.41 -310.89453125 334.07 -310.89453125 334.75 C-281.19453125 334.75 -251.49453125 334.75 -220.89453125 334.75 C-220.92933594 324.59605469 -220.96414062 314.44210937 -221 303.98046875 C-221.01535307 297.49544036 -221.02992191 291.0104254 -221.04101562 284.52539062 C-221.05871419 274.26273016 -221.07934838 264.00014436 -221.12084961 253.73754883 C-221.15107984 246.25842116 -221.17018248 238.77935494 -221.17679673 231.30016786 C-221.18065314 227.35274111 -221.18948514 223.40548988 -221.21172142 219.45812035 C-221.56709307 153.70375398 -205.01310078 92.41417042 -162.89453125 40.75 C-162.44674316 40.19924805 -161.99895508 39.64849609 -161.53759766 39.08105469 C-150.58413856 25.71760615 -138.59257489 13.31706224 -124.89453125 2.75 C-123.8684375 1.93015625 -122.84234375 1.1103125 -121.78515625 0.265625 C-114.48733988 -5.5271472 -106.98159997 -10.59479311 -98.89453125 -15.25 C-98.18941406 -15.65992188 -97.48429687 -16.06984375 -96.7578125 -16.4921875 C-62.978384 -34.76282178 -27.75947593 -21.57821611 0 0 Z " fill="#000000" transform="translate(460.89453125,25.25)"/>
<path d="M0 0 C3.05403474 1.31127363 5.53863897 3.24523411 8.12890625 5.2890625 C8.69561035 5.73096924 9.26231445 6.17287598 9.84619141 6.62817383 C15.89790511 11.4142849 21.54153261 16.59984935 27.12890625 21.9140625 C27.76183594 22.49414062 28.39476562 23.07421875 29.046875 23.671875 C63.08213098 55.8477227 77.90616383 104.00819162 79.23459625 149.53627396 C79.38471113 158.08883522 79.36699988 166.64074292 79.33146667 175.19411469 C79.31981207 178.46855699 79.31952646 181.74299559 79.31811523 185.01745605 C79.30774836 194.50384335 79.27982683 203.99020495 79.25390625 213.4765625 C79.21265625 234.7409375 79.17140625 256.0053125 79.12890625 277.9140625 C26.65890625 277.9140625 -25.81109375 277.9140625 -79.87109375 277.9140625 C-79.93296875 254.2365625 -79.99484375 230.5590625 -80.05859375 206.1640625 C-80.08590576 198.72391602 -80.11321777 191.28376953 -80.14135742 183.61816406 C-80.15490723 174.44091797 -80.15490723 174.44091797 -80.15742493 170.12689209 C-80.16018826 167.15270084 -80.17130175 164.17867485 -80.18782043 161.20452881 C-80.4805989 105.99280629 -64.87441933 58.49711588 -25.64404297 18.65527344 C-6.35168263 -0.29172655 -6.35168263 -0.29172655 0 0 Z " fill="#EF1313" transform="translate(400.87109375,82.0859375)"/>
<path d="M0 0 C52.47 0 104.94 0 159 0 C159.04125 21.07875 159.0825 42.1575 159.125 63.875 C159.14320801 70.47741699 159.16141602 77.07983398 159.18017578 83.88232422 C159.18920898 92.08032227 159.18920898 92.08032227 159.19088745 95.94436646 C159.19391531 98.58580628 159.20006662 101.22703944 159.21115112 103.86843872 C159.38737214 147.89491495 155.59933799 192.01526311 129 229 C128.57493164 229.59586914 128.14986328 230.19173828 127.71191406 230.80566406 C121.03863966 240.10794293 113.93826224 248.75641998 106 257 C105.4225 257.6290625 104.845 258.258125 104.25 258.90625 C98.93741358 264.53759161 92.67094822 269.17099765 86.51025391 273.83007812 C85.26037226 274.79830199 84.06502593 275.83646478 82.88671875 276.890625 C81 278 81 278 78.65234375 277.984375 C75.12292469 276.67448751 72.44726219 274.60304816 69.5625 272.25 C68.95704346 271.76337891 68.35158691 271.27675781 67.7277832 270.77539062 C57.05757369 262.08389979 47.39204168 252.94346827 39 242 C38.21367187 241.0409375 37.42734375 240.081875 36.6171875 239.09375 C12.22849579 208.8181327 -0.22009621 170.21847068 -0.11352539 131.57592773 C-0.11321856 130.11303491 -0.11335339 128.65014194 -0.11389065 127.18724918 C-0.11411511 123.29265903 -0.1083466 119.3981 -0.10128021 115.50351715 C-0.09555785 111.84027516 -0.0953156 108.17704048 -0.09460449 104.51379395 C-0.08937069 93.82169189 -0.07540943 83.12959554 -0.0625 72.4375 C-0.041875 48.533125 -0.02125 24.62875 0 0 Z " fill="#EF1313" transform="translate(321,440)"/>
</svg>
