<?xml version="1.0" standalone="no"?>
<!DOCTYPE svg PUBLIC "-//W3C//DTD SVG 20010904//EN"
 "http://www.w3.org/TR/2001/REC-SVG-20010904/DTD/svg10.dtd">
<svg version="1.0" xmlns="http://www.w3.org/2000/svg"
 width="800.000000pt" height="800.000000pt" viewBox="0 0 800.000000 800.000000"
 preserveAspectRatio="xMidYMid meet">

<g transform="translate(0.000000,800.000000) scale(0.100000,-0.100000)"
fill="#000000" stroke="none">
<path d="M3885 7980 c-127 -20 -247 -72 -377 -162 -498 -346 -873 -891 -1022
-1483 -71 -281 -69 -248 -73 -1132 l-4 -803 -454 0 -454 0 -32 48 c-82 119
-197 215 -335 278 -136 63 -175 69 -509 69 -288 0 -302 -1 -355 -22 -76 -31
-159 -100 -197 -164 -62 -104 -64 -127 -61 -636 3 -409 5 -463 21 -503 44
-113 142 -209 250 -247 46 -16 88 -18 347 -18 255 0 305 3 365 19 194 51 365
170 474 329 l32 47 454 0 454 0 4 -803 c4 -884 2 -851 73 -1132 150 -598 520
-1133 1030 -1488 164 -114 301 -160 484 -160 138 0 218 17 337 73 150 70 350
227 535 418 388 403 621 891 709 1487 8 54 13 330 16 843 l5 762 451 0 452 -1
27 -42 c96 -152 271 -276 463 -329 74 -20 104 -22 380 -22 293 -1 301 0 358
23 78 31 155 95 195 161 63 105 63 108 60 631 l-3 474 -32 67 c-56 119 -141
190 -268 223 -69 18 -484 21 -596 5 -101 -15 -215 -54 -304 -106 -86 -51 -212
-169 -255 -242 l-25 -41 -452 -1 -451 0 -5 763 c-4 821 -5 830 -62 1092 -41
188 -116 401 -209 590 -140 283 -294 493 -522 715 -224 218 -435 358 -600 400
-91 24 -236 32 -319 20z"/>
</g>
</svg>
