<?xml version="1.0" encoding="UTF-8"?>
<svg version="1.1" xmlns="http://www.w3.org/2000/svg" width="800" height="800">
<path d="M0 0 C6.98762502 5.5980973 13.62448058 11.5773584 20.10546875 17.75 C21.00386475 18.60537354 21.00386475 18.60537354 21.92041016 19.47802734 C30.26073406 27.47828126 37.90599011 35.69466957 44.79052734 44.98193359 C46.13478875 46.78942359 47.50306002 48.57673612 48.875 50.36328125 C55.74184959 59.39835719 61.57318922 68.85132518 67.10546875 78.75 C67.48944824 79.42224609 67.87342773 80.09449219 68.26904297 80.78710938 C83.48368071 107.49220488 92.43843506 137.48727388 97.10546875 167.75 C97.28118912 168.86472183 97.45690948 169.97944366 97.63795471 171.12794495 C99.70499003 186.57583893 99.36409739 202.11104099 99.30825663 217.66252565 C99.29560508 221.79042165 99.29456757 225.91832174 99.29220581 230.04623413 C99.28603284 237.83363334 99.26967975 245.62097523 99.24950683 253.40834939 C99.22279648 263.95219143 99.21214132 274.49604957 99.2005024 285.03991699 C99.18179526 301.60998746 99.14192208 318.17993704 99.10546875 334.75 C128.80546875 334.75 158.50546875 334.75 189.10546875 334.75 C189.76546875 333.1 190.42546875 331.45 191.10546875 329.75 C193.55990959 326.24043172 196.3232882 323.00356289 199.10546875 319.75 C199.63011719 319.12738281 200.15476562 318.50476563 200.6953125 317.86328125 C212.8112705 304.6374645 232.59644581 295.83065459 250.28704834 294.51303101 C257.81068192 294.18849696 265.33148924 294.1802684 272.86083984 294.22851562 C275.53227793 294.24288346 278.20049927 294.24670559 280.87158203 294.22851562 C284.77799092 294.20364318 288.68339043 294.20683454 292.58984375 294.21875 C293.76826843 294.21065308 294.94669312 294.20255615 296.16082764 294.19421387 C308.18961574 294.32858975 318.35515506 297.2520992 327.10546875 305.75 C336.70290077 315.82349511 339.24597875 327.41291794 339.26660156 341.03344727 C339.27156647 341.83128128 339.27653137 342.6291153 339.28164673 343.4511261 C339.29616836 346.07289517 339.30305504 348.69460367 339.30859375 351.31640625 C339.31142113 352.21924788 339.3142485 353.1220895 339.31716156 354.05228996 C339.33211682 358.83409794 339.3413683 363.61587605 339.34570312 368.39770508 C339.35116961 373.30063457 339.3751696 378.20328382 339.40367508 383.10612583 C339.42243976 386.90775816 339.42751445 390.70932498 339.429039 394.51099968 C339.43203704 396.31644147 339.43996726 398.12188291 339.45322418 399.92727852 C339.56521728 416.35705237 338.79576221 430.9534151 327.2578125 443.80859375 C320.0095926 450.72937866 310.54811272 454.84141466 300.54931641 454.91113281 C299.4336026 454.92074036 298.31788879 454.9303479 297.16836548 454.94024658 C295.96425018 454.94449646 294.76013489 454.94874634 293.51953125 454.953125 C292.27102386 454.95882507 291.02251648 454.96452515 289.73617554 454.97039795 C287.0882402 454.97984933 284.44041816 454.98674427 281.79248047 454.99023438 C279.10223667 454.99459746 276.41231748 455.00840477 273.72216797 455.03125 C269.82119154 455.0620004 265.92061603 455.07231661 262.01953125 455.078125 C260.83565826 455.0904718 259.65178528 455.1028186 258.43203735 455.11553955 C236.00511751 455.05687208 216.02323887 446.39589294 200.0390625 430.83203125 C195.65299561 426.36445462 191.90972896 421.35852042 189.10546875 415.75 C159.40546875 415.42 129.70546875 415.09 99.10546875 414.75 C99.14027344 425.21589844 99.17507813 435.68179687 99.2109375 446.46484375 C99.22628703 453.14127831 99.24085549 459.81769987 99.25195312 466.49414062 C99.26966535 477.06425406 99.2903393 487.6342951 99.33178711 498.2043457 C99.36197581 505.90685688 99.38111052 513.6093086 99.38773423 521.31187731 C99.39159741 525.37884528 99.40047552 529.44564336 99.42265892 533.51255608 C99.74399628 594.88499738 84.63455297 653.78972396 46.10546875 702.75 C45.3475 703.719375 44.58953125 704.68875 43.80859375 705.6875 C38.22308631 712.65948092 32.25947934 719.27909503 26.10546875 725.75 C25.56760742 726.31654297 25.02974609 726.88308594 24.47558594 727.46679688 C16.78996221 735.50317986 8.82588761 742.76826937 -0.09716797 749.40576172 C-1.95303966 750.79375812 -3.78537058 752.2093555 -5.6171875 753.62890625 C-25.83314237 769.11480409 -47.5499383 776.12105954 -73.04345703 773.53173828 C-91.28870872 770.88810492 -106.69799293 760.9368722 -120.89453125 749.75 C-121.79945313 749.03972656 -122.704375 748.32945312 -123.63671875 747.59765625 C-131.04520879 741.66012728 -138.01419949 735.28427957 -144.89453125 728.75 C-146.13589844 727.57244141 -146.13589844 727.57244141 -147.40234375 726.37109375 C-153.05232237 720.86876265 -157.9852322 714.91311284 -162.89453125 708.75 C-163.84585938 707.61691406 -163.84585938 707.61691406 -164.81640625 706.4609375 C-175.9106242 693.12036963 -184.92772001 678.12281176 -192.89453125 662.75 C-193.28237793 662.00169922 -193.67022461 661.25339844 -194.06982422 660.48242188 C-212.23120903 624.93636557 -221.11711081 584.89520783 -221.00805664 545.07714844 C-221.00777384 543.64682517 -221.00793431 542.21650177 -221.00849915 540.78617859 C-221.0087835 536.94195745 -221.00294584 533.09776815 -220.99592519 529.25355434 C-220.98963085 525.22171126 -220.98908307 521.18986726 -220.98789978 517.15802002 C-220.98480427 509.54043813 -220.9766151 501.92287076 -220.96655029 494.30529523 C-220.95323209 483.99944162 -220.94787485 473.69358398 -220.94204807 463.38772392 C-220.93267383 447.17513842 -220.91274309 430.96258356 -220.89453125 414.75 C-250.59453125 414.75 -280.29453125 414.75 -310.89453125 414.75 C-311.55453125 416.4 -312.21453125 418.05 -312.89453125 419.75 C-324.67777535 437.63702983 -342.55917555 449.19830731 -363.30004883 453.8034668 C-369.65499683 455.04152233 -375.93377248 455.07400601 -382.390625 455.0859375 C-383.65995377 455.0925943 -384.92928253 455.0992511 -386.23707581 455.10610962 C-388.90892691 455.11618925 -391.58037029 455.12179888 -394.25219727 455.12060547 C-397.6455676 455.12040221 -401.03810117 455.14774726 -404.43127346 455.18214989 C-407.7093575 455.20995842 -410.98743923 455.20857246 -414.265625 455.2109375 C-415.46803329 455.22530853 -416.67044159 455.23967957 -417.9092865 455.25448608 C-428.10018892 455.19986858 -436.68703076 453.0033337 -444.89453125 446.75 C-446.13203125 445.9146875 -446.13203125 445.9146875 -447.39453125 445.0625 C-454.9471198 438.07635559 -459.65383743 428.3949711 -460.26806641 418.13500977 C-460.47415961 412.44476081 -460.4515161 406.75556731 -460.42578125 401.0625 C-460.4284806 398.952228 -460.43236669 396.84195723 -460.43737793 394.73168945 C-460.44325212 390.3239347 -460.43477719 385.91650573 -460.41601562 381.50878906 C-460.39322762 375.88361167 -460.40636188 370.2591979 -460.43030548 364.63404846 C-460.44481974 360.28090756 -460.44013171 355.92794511 -460.42979431 351.57479858 C-460.42714257 349.50173856 -460.43034159 347.42866188 -460.43971252 345.35562134 C-460.49105709 330.80760031 -459.75538331 318.34197942 -449.89453125 306.75 C-442.15009853 299.37087071 -433.03929159 294.67989475 -422.27832031 294.57299805 C-421.14904114 294.56016281 -420.01976196 294.54732758 -418.85626221 294.53410339 C-417.02668976 294.52302299 -417.02668976 294.52302299 -415.16015625 294.51171875 C-413.26121613 294.49961113 -413.26121613 294.49961113 -411.32391357 294.48725891 C-408.63729201 294.47341982 -405.95079294 294.46240603 -403.26416016 294.45483398 C-400.5389931 294.44604078 -397.8143471 294.42532667 -395.08935547 294.39331055 C-366.12752455 294.06028242 -366.12752455 294.06028242 -352.89453125 298.75 C-351.79906982 299.12809814 -350.7036084 299.50619629 -349.57495117 299.89575195 C-334.19001439 305.48420222 -318.52569681 318.09945008 -310.89453125 332.75 C-310.89453125 333.41 -310.89453125 334.07 -310.89453125 334.75 C-281.19453125 334.75 -251.49453125 334.75 -220.89453125 334.75 C-220.92933594 324.59605469 -220.96414062 314.44210937 -221 303.98046875 C-221.01535307 297.49544036 -221.02992191 291.0104254 -221.04101562 284.52539062 C-221.05871419 274.26273016 -221.07934838 264.00014436 -221.12084961 253.73754883 C-221.15107984 246.25842116 -221.17018248 238.77935494 -221.17679673 231.30016786 C-221.18065314 227.35274111 -221.18948514 223.40548988 -221.21172142 219.45812035 C-221.56709307 153.70375398 -205.01310078 92.41417042 -162.89453125 40.75 C-162.44674316 40.19924805 -161.99895508 39.64849609 -161.53759766 39.08105469 C-150.58413856 25.71760615 -138.59257489 13.31706224 -124.89453125 2.75 C-123.8684375 1.93015625 -122.84234375 1.1103125 -121.78515625 0.265625 C-114.48733988 -5.5271472 -106.98159997 -10.59479311 -98.89453125 -15.25 C-98.18941406 -15.65992188 -97.48429687 -16.06984375 -96.7578125 -16.4921875 C-62.978384 -34.76282178 -27.75947593 -21.57821611 0 0 Z " fill="#000000" transform="translate(460.89453125,25.25)"/>
<path d="M0 0 C3.58104245 2.02339248 6.73886602 4.4074406 9.953125 6.96484375 C10.58992188 7.45533203 11.22671875 7.94582031 11.8828125 8.45117188 C16.57818513 12.15252413 16.57818513 12.15252413 17.703125 15.52734375 C19.01267083 16.23960208 20.35047325 16.90080129 21.703125 17.52734375 C27.39921743 21.87281633 32.18987244 26.99257312 36.703125 32.52734375 C37.45335937 33.44 38.20359375 34.35265625 38.9765625 35.29296875 C65.40802134 68.4782073 78.93403373 107.72011751 78.81665039 150.01660156 C78.81634327 151.44982272 78.81647888 152.88304402 78.81701565 154.31626511 C78.81723928 158.11744233 78.81148859 161.91858738 78.80440521 165.71975708 C78.79866499 169.30063974 78.79843965 172.88151501 78.79772949 176.46240234 C78.7925044 186.90072032 78.77854314 197.33903246 78.765625 207.77734375 C78.745 231.12484375 78.724375 254.47234375 78.703125 278.52734375 C25.903125 278.52734375 -26.896875 278.52734375 -81.296875 278.52734375 C-81.35875 255.20046875 -81.420625 231.87359375 -81.484375 207.83984375 C-81.51168701 200.51321533 -81.53899902 193.18658691 -81.56713867 185.63793945 C-81.58068848 176.59216309 -81.58068848 176.59216309 -81.58320618 172.33830261 C-81.58596656 169.40915405 -81.59706768 166.48017374 -81.61360168 163.55107117 C-81.83111705 123.18998744 -74.62819609 88.64508017 -54.296875 53.52734375 C-53.636875 53.52734375 -52.976875 53.52734375 -52.296875 53.52734375 C-52.19375 52.96144531 -52.090625 52.39554688 -51.984375 51.8125 C-46.24481074 32.73497108 -21.87439218 13.70945038 -6.296875 2.52734375 C-5.62140625 1.90472656 -4.9459375 1.28210938 -4.25 0.640625 C-2.296875 -0.47265625 -2.296875 -0.47265625 0 0 Z " fill="#13EE61" transform="translate(401.296875,81.47265625)"/>
<path d="M0 0 C52.8 0 105.6 0 160 0 C160.061875 23.698125 160.12375 47.39625 160.1875 71.8125 C160.21481201 79.26175049 160.24212402 86.71100098 160.27026367 94.38598633 C160.28381348 103.56774902 160.28381348 103.56774902 160.28633118 107.88261414 C160.28909679 110.86018244 160.3002198 113.83758602 160.31672668 116.81510925 C160.40292003 133.08000864 160.48726401 149.02102481 157 165 C156.74639709 166.17020691 156.49279419 167.34041382 156.23150635 168.54608154 C155.59304107 171.36451118 154.88196517 174.14876059 154.125 176.9375 C153.86452881 177.91203125 153.60405762 178.8865625 153.33569336 179.890625 C151.42039732 186.87190535 149.1122342 193.45609408 146 200 C145.48824219 201.16144531 144.97648438 202.32289063 144.44921875 203.51953125 C136.57195676 221.26298312 126.11147069 236.59683247 112.953125 250.859375 C111.37097392 252.59341258 109.89053119 254.34699382 108.4375 256.1875 C103.23569978 262.18957717 96.8653109 266.98207491 90.6875 271.9375 C90.07656494 272.43467529 89.46562988 272.93185059 88.83618164 273.4440918 C84.3472907 277 84.3472907 277 81 277 C81 277.66 81 278.32 81 279 C77.45493808 277.37940026 74.40978743 275.27370948 71.25 273 C70.26515625 272.29875 69.2803125 271.5975 68.265625 270.875 C67.51796875 270.25625 66.7703125 269.6375 66 269 C66 268.34 66 267.68 66 267 C65.29488281 266.7834375 64.58976562 266.566875 63.86328125 266.34375 C60.30274276 264.67277423 57.88359741 262.28608731 55.1875 259.5 C54.68541016 259.00113281 54.18332031 258.50226563 53.66601562 257.98828125 C50 254.26740009 50 254.26740009 50 252 C49.45601563 251.80277344 48.91203125 251.60554687 48.3515625 251.40234375 C44.97130997 249.38654532 42.84698551 246.58638602 40.375 243.5625 C39.64023437 242.68368164 39.64023437 242.68368164 38.890625 241.78710938 C33 234.69743639 33 234.69743639 33 231 C32.34 231 31.68 231 31 231 C19.97118554 215.88068627 10.54964195 196.33981674 7 178 C6.68546875 177.22398437 6.3709375 176.44796875 6.046875 175.6484375 C-1.83358673 155.7120455 -0.28220492 132.52183578 -0.20256042 111.50382233 C-0.1910218 107.95929122 -0.19062622 104.41478941 -0.18920898 100.87023926 C-0.17878693 90.55930923 -0.15086452 80.24840286 -0.125 69.9375 C-0.08375 46.858125 -0.0425 23.77875 0 0 Z " fill="#13EE61" transform="translate(320,440)"/>
</svg>
