<?xml version="1.0" encoding="UTF-8"?>
<svg version="1.1" xmlns="http://www.w3.org/2000/svg" width="800" height="800">
<path d="M0 0 C0.84561586 -0.00495952 1.69123173 -0.00991903 2.56247231 -0.01502883 C5.41514833 -0.02805172 8.26736139 -0.01957913 11.12004948 -0.01129913 C13.17821701 -0.01618486 15.2363818 -0.02237318 17.2945419 -0.02975702 C22.96527769 -0.0462199 28.63587505 -0.04382573 34.30662644 -0.03838205 C40.41647416 -0.03571967 46.52628431 -0.05022869 52.63611698 -0.06247711 C64.61151177 -0.08356653 76.58684623 -0.08808877 88.56225281 -0.08628923 C98.29228944 -0.08491725 108.02231134 -0.08872843 117.75234509 -0.09621429 C119.14923365 -0.09726462 120.54612222 -0.09831224 121.9430108 -0.09935716 C122.63639756 -0.0998765 123.32978432 -0.10039585 124.0441828 -0.10093093 C124.73882338 -0.10145107 125.43346396 -0.10197121 126.14915425 -0.10250711 C126.84493908 -0.10303111 127.54072391 -0.1035551 128.25759313 -0.10409497 C147.83264035 -0.11868252 167.40768215 -0.12695885 186.98273468 -0.12234497 C187.72099179 -0.12217302 188.45924891 -0.12200106 189.21987745 -0.1218239 C192.96183243 -0.12093498 196.7037874 -0.11999017 200.44574236 -0.11902589 C201.18893391 -0.11883485 201.93212546 -0.11864382 202.69783796 -0.118447 C204.20075228 -0.11805991 205.7036666 -0.11766958 207.20658093 -0.11727602 C230.59623963 -0.11130489 253.98579943 -0.1267475 277.37543583 -0.15888214 C303.64146987 -0.19493783 329.90744119 -0.21429471 356.17350155 -0.20934343 C358.97275229 -0.20887344 361.77200303 -0.20846319 364.57125378 -0.20809174 C365.26052275 -0.20798935 365.94979172 -0.20788696 366.65994764 -0.20778148 C377.07651124 -0.20658538 387.4930072 -0.21857022 397.90955257 -0.23723602 C409.75240414 -0.25844714 421.59510862 -0.26188775 433.43797904 -0.24293643 C439.48414854 -0.23374987 445.53003459 -0.23272485 451.57618237 -0.25329208 C457.10614418 -0.27189592 462.63558829 -0.26761805 468.16552974 -0.24474627 C470.17087015 -0.24053363 472.17624944 -0.24484901 474.18154889 -0.25834221 C476.89885783 -0.2753876 479.61433552 -0.26189875 482.33157349 -0.24050903 C483.51100836 -0.25892532 483.51100836 -0.25892532 484.7142702 -0.27771366 C488.7377824 -0.21113376 490.51105678 0.20577622 493.67238384 2.78151178 C497.94690749 8.18950982 498.0124639 12.75360799 497.95575809 19.3960495 C497.95605015 20.29410812 497.9563422 21.19216675 497.9566431 22.11743927 C497.95525302 25.07718922 497.93970684 28.03668547 497.92401981 30.9963913 C497.92028855 33.05190646 497.91744211 35.1074234 497.91544437 37.16294098 C497.9078169 42.56672344 497.88817594 47.97039798 497.86603642 53.37413788 C497.84555896 58.89078563 497.83643859 64.40745085 497.82636356 69.92412567 C497.80492928 80.74383448 497.77080395 91.56346328 497.72870731 102.38311005 C499.49825552 100.94122113 501.26697766 99.49831838 503.03534794 98.05498505 C504.51291569 96.84987274 504.51291569 96.84987274 506.02033329 95.62041473 C508.84753969 93.28494626 511.55107555 90.88686962 514.22870731 88.38311005 C518.66795757 84.29698197 523.25703591 80.47061625 527.95526981 76.68779755 C531.8474801 73.45342562 535.53487324 70.01313313 539.22089481 66.54717255 C544.05169943 62.3785343 547.65744573 60.57671878 554.04756832 60.87516975 C557.13368183 61.45983224 558.27520509 62.29774143 560.54489994 64.42421722 C561.23251534 65.06163219 561.92013073 65.69904716 562.62858295 66.35577774 C563.32162399 67.0247974 564.01466503 67.69381706 564.72870731 68.38311005 C565.38014587 69.00716358 566.03158443 69.63121712 566.70276356 70.27418137 C568.77155262 72.28274429 570.81661899 74.31311611 572.85712528 76.3503952 C573.62561298 77.113918 574.39410069 77.8774408 575.18587589 78.66410065 C577.70030089 81.16404397 580.21092651 83.66775516 582.72089481 86.17217255 C583.58263435 87.03108471 584.44437389 87.88999687 585.33222675 88.77493668 C589.88245891 93.31024174 594.4298564 97.84836583 598.97480106 102.38896942 C603.66898468 107.07764331 608.37239134 111.75695089 613.07797909 116.43417549 C616.6997541 120.03735244 620.31482868 123.64719485 623.92808247 127.25891495 C625.6599725 128.9877772 627.39436468 130.71413668 629.13129139 132.43793869 C631.55353048 134.84315937 633.96616854 137.25762451 636.37665653 139.67461395 C637.09560596 140.3843486 637.8145554 141.09408325 638.55529118 141.82532501 C643.11982172 146.42861196 645.68117333 149.48353699 645.79120731 156.19561005 C644.4839679 163.90198791 637.64702856 168.62048801 631.67051029 172.94152451 C629.8715189 174.21037857 628.06736074 175.47140142 626.26013052 176.72849295 C570.57597871 215.68266623 503.35749491 267.88684731 490.51245236 338.25254756 C485.6292621 367.36235939 484.96919224 396.91665967 485.04120731 426.36748505 C485.04304775 427.68339811 485.04488819 428.99931118 485.0467844 430.35510039 C485.12499433 463.63530462 486.4717001 496.82460704 488.32597896 530.0479404 C489.45914217 550.40414329 490.23773715 570.74945068 490.74677372 591.13066864 C490.76441099 591.83203406 490.78204826 592.53339949 490.80022 593.25601841 C490.99471937 601.00566113 491.18081886 608.75548991 491.36264706 616.50543928 C491.68333698 630.1617036 492.03731692 643.81707572 492.40912724 657.47203827 C492.44487657 658.78900673 492.48062591 660.10597519 492.51745856 661.46285179 C493.05054094 680.82225066 493.77602797 700.16774843 494.65570927 719.51439667 C494.71020272 720.72052972 494.76469618 721.92666278 494.82084095 723.16934532 C495.33607841 734.53462851 495.86967754 745.89863282 496.45993561 757.26028298 C496.66655176 761.28460593 496.86097647 765.30946139 497.05303991 769.33450225 C497.18774172 772.05246737 497.34058838 774.76900132 497.49409294 777.48595786 C497.57216376 779.1128744 497.6492609 780.73983808 497.72519779 782.36685562 C497.77120729 783.08363257 497.81721678 783.80040953 497.86462051 784.53890699 C498.06791696 789.52097575 497.19263792 793.05189588 494.72870731 797.38311005 C490.71178074 800.93514186 486.476181 800.8083762 481.35277748 800.76622009 C480.50799574 800.77117961 479.66321401 800.77613912 478.79283282 800.78124893 C475.94900504 800.79424989 473.10564333 800.7858061 470.26180363 800.77751923 C468.20761052 800.78240599 466.15342017 800.78859479 464.09923452 800.79597712 C458.4440901 800.81242684 452.78908463 800.81004848 447.1339246 800.80460215 C441.03907205 800.80193816 434.94425707 800.8164518 428.84941959 800.8286972 C416.90524695 800.84977971 404.96112148 800.85430925 393.01693685 800.85250932 C383.31172296 800.85113699 373.60652383 800.85495028 363.90131283 800.86243439 C362.50765615 800.86348472 361.11399948 800.86453233 359.7203428 800.86557725 C358.68265862 800.86635627 358.68265862 800.86635627 357.62401112 800.86715102 C356.93096626 800.86767116 356.2379214 800.8681913 355.52387518 800.86872721 C354.82968296 800.8692512 354.13549075 800.86977519 353.42026241 800.87031506 C333.8920123 800.88490109 314.36376761 800.89317961 294.83551216 800.88856506 C294.09912914 800.88839311 293.36274612 800.88822115 292.60404847 800.88804399 C288.87164882 800.88715508 285.1392492 800.88621027 281.40684957 800.88524598 C280.29492196 800.88495943 280.29492196 800.88495943 279.16053118 800.88466709 C277.66147254 800.88428 276.16241391 800.88388967 274.66335528 800.88349611 C251.33394318 800.87752505 228.00463025 800.89296794 204.67524052 800.92510223 C178.47291427 800.96116303 152.27065091 800.98051413 126.06829828 800.97556353 C123.27550471 800.97509354 120.48271115 800.97468329 117.68991756 800.97431183 C117.00224566 800.97420944 116.31457377 800.97410706 115.60606332 800.97400157 C105.21662381 800.9728058 94.82725216 800.98478601 84.43783092 801.00345612 C72.62505112 801.02467359 60.81238854 801.02810153 48.99959356 801.00915653 C42.96949507 800.99997392 36.93968074 800.99893301 30.90960407 801.01951218 C25.39319928 801.03813057 19.87731319 801.03382148 14.36092871 801.01096636 C12.36165687 801.00675746 10.36234597 801.01105681 8.36311532 801.0245623 C5.65160332 801.04163698 2.94191999 801.02809425 0.23047829 801.00672913 C-0.55129442 801.01900665 -1.33306713 801.03128418 -2.13852993 801.04393375 C-6.07294503 800.97887821 -8.68524611 800.44731377 -11.74015337 798.03163385 C-15.66985631 793.91968643 -15.39543566 790.79712779 -15.3915472 785.302742 C-15.39282884 784.21471394 -15.39282884 784.21471394 -15.39413637 783.10470551 C-15.39578686 780.66794109 -15.39027683 778.23124511 -15.38481808 775.794487 C-15.38453609 774.05022432 -15.38469417 772.30596152 -15.38526058 770.56169891 C-15.38554809 765.82028189 -15.37965881 761.07889004 -15.37268662 756.33747888 C-15.36644541 751.38468824 -15.36584868 746.43189705 -15.36466122 741.47910309 C-15.36155017 732.09750768 -15.35333983 722.71592389 -15.34331173 713.3343336 C-15.33214357 702.6549041 -15.32663836 691.97547406 -15.32161629 681.29604018 C-15.31115704 659.32505698 -15.29356197 637.35408424 -15.27129269 615.38311005 C-16.05712231 615.07527588 -16.84295193 614.76744171 -17.65259457 614.45027924 C-19.97741554 613.50287056 -21.90166466 612.48205918 -24.00176144 611.12529755 C-24.70881222 610.67283661 -25.415863 610.22037567 -26.14433956 609.7542038 C-26.90810909 609.26049286 -27.67187862 608.76678192 -28.45879269 608.25811005 C-36.34597942 603.21578862 -44.28982508 598.27477031 -52.27129269 593.38311005 C-60.55541405 588.30055547 -68.80598146 583.17259222 -77.00957394 577.96123505 C-83.72494931 573.7054946 -90.49506434 569.54110579 -97.27129269 565.38311005 C-105.66001892 560.23533091 -114.02387039 555.05432364 -122.32598019 549.76787567 C-126.52509066 547.09870197 -130.74765217 544.47563147 -135.00176144 541.8948288 C-135.96299923 541.30919159 -136.92423702 540.72355438 -137.91460323 540.12017059 C-139.77534148 538.98871579 -141.63992002 537.86354494 -143.50884151 536.74565887 C-144.76797359 535.9783847 -144.76797359 535.9783847 -146.05254269 535.19561005 C-146.79568722 534.74830536 -147.53883175 534.30100067 -148.30449581 533.8401413 C-151.50441255 531.46959722 -153.01809737 529.14269599 -154.27129269 525.38311005 C-154.36971666 523.6608776 -154.41055449 521.93509982 -154.41846371 520.21007538 C-154.42561901 519.13905579 -154.43277431 518.06803619 -154.44014645 516.96456146 C-154.44283535 515.78945007 -154.44552425 514.61433868 -154.44829464 513.40361786 C-154.45486584 512.1659668 -154.46143703 510.92831573 -154.46820736 509.6531601 C-154.48795718 505.54751596 -154.49960842 501.44191091 -154.50957394 497.33623505 C-154.51362234 495.92140687 -154.51773929 494.50657888 -154.52192402 493.0917511 C-154.54097199 486.44371374 -154.55520339 479.79568746 -154.56353599 473.14762807 C-154.57330491 465.48074913 -154.59961675 457.81415916 -154.64003688 450.14738202 C-154.67022701 444.21689782 -154.68500763 438.28649631 -154.688317 432.35593677 C-154.69066437 428.81602828 -154.69958322 425.27642864 -154.72477818 421.73660278 C-154.75245422 417.78436859 -154.74821885 413.8325126 -154.74126339 409.88018036 C-154.75407345 408.71316589 -154.76688351 407.54615143 -154.78008175 406.34377289 C-154.7383224 399.83494621 -154.33496415 395.58741076 -150.27129269 390.38311005 C-146.3015281 387.56803786 -141.95327175 387.73245938 -137.27129269 388.38311005 C-133.81227138 389.54248127 -130.66064374 391.14983897 -127.43535519 392.84404755 C-126.51652554 393.3086438 -125.59769588 393.77324005 -124.65102291 394.25191498 C-121.72387436 395.73722037 -118.81027801 397.24717261 -115.89629269 398.75811005 C-113.97915275 399.73499871 -112.06118925 400.7102729 -110.14238644 401.6838913 C-100.24797115 406.71947776 -90.41511266 411.87084971 -80.59859371 417.0562973 C-75.19302647 419.90885762 -69.7567372 422.6869577 -64.27129269 425.38311005 C-56.98959083 428.99245086 -49.78156246 432.72101607 -42.60478878 436.53423309 C-36.67131329 439.67483121 -30.68776058 442.70490081 -24.67754269 445.69561005 C-23.76649776 446.15000458 -22.85545284 446.60439911 -21.9168005 447.07256317 C-19.70209334 448.17701031 -17.48692085 449.28051204 -15.27129269 450.38311005 C-15.27243185 449.44975006 -15.27357101 448.51639007 -15.27474469 447.55474645 C-15.34194905 392.274465 -15.3933294 336.99418732 -15.42448867 281.71387323 C-15.42824094 275.08091369 -15.43212389 268.44795423 -15.43608761 261.81499481 C-15.43647989 261.15492814 -15.43687216 260.49486146 -15.43727633 259.81479277 C-15.45046266 237.74680951 -15.47433815 215.67885211 -15.50275107 193.61088369 C-15.53077484 171.6626302 -15.54746252 149.71438935 -15.55355817 127.76611871 C-15.5576809 114.21555195 -15.57071675 100.66505331 -15.59504209 87.11450752 C-15.6108619 77.8308538 -15.61570158 68.54723545 -15.61179682 59.26356921 C-15.60986941 53.90202254 -15.6128884 48.54059515 -15.62890911 43.17906952 C-15.64345786 38.27450672 -15.64427785 33.37014395 -15.63398937 28.46557214 C-15.63271691 26.68756361 -15.63656492 24.90954283 -15.64594223 23.13155857 C-15.65791961 20.72120094 -15.65153079 18.31157261 -15.64043617 15.901227 C-15.64831721 15.20524138 -15.65619825 14.50925576 -15.66431811 13.79217967 C-15.60826833 8.43146632 -14.20929758 5.45802045 -10.60074848 1.59455442 C-7.15340969 -0.19825023 -3.79452907 -0.0310431 0 0 Z " fill="#483232" transform="translate(154.2712926864624,-0.38311004638671875)"/>
<path d="M0 0 C0.84561586 -0.00495952 1.69123173 -0.00991903 2.56247231 -0.01502883 C5.41514833 -0.02805172 8.26736139 -0.01957913 11.12004948 -0.01129913 C13.17821701 -0.01618486 15.2363818 -0.02237318 17.2945419 -0.02975702 C22.96527769 -0.0462199 28.63587505 -0.04382573 34.30662644 -0.03838205 C40.41647416 -0.03571967 46.52628431 -0.05022869 52.63611698 -0.06247711 C64.61151177 -0.08356653 76.58684623 -0.08808877 88.56225281 -0.08628923 C98.29228944 -0.08491725 108.02231134 -0.08872843 117.75234509 -0.09621429 C119.14923365 -0.09726462 120.54612222 -0.09831224 121.9430108 -0.09935716 C122.63639756 -0.0998765 123.32978432 -0.10039585 124.0441828 -0.10093093 C124.73882338 -0.10145107 125.43346396 -0.10197121 126.14915425 -0.10250711 C126.84493908 -0.10303111 127.54072391 -0.1035551 128.25759313 -0.10409497 C147.83264035 -0.11868252 167.40768215 -0.12695885 186.98273468 -0.12234497 C187.72099179 -0.12217302 188.45924891 -0.12200106 189.21987745 -0.1218239 C192.96183243 -0.12093498 196.7037874 -0.11999017 200.44574236 -0.11902589 C201.18893391 -0.11883485 201.93212546 -0.11864382 202.69783796 -0.118447 C204.20075228 -0.11805991 205.7036666 -0.11766958 207.20658093 -0.11727602 C230.59623963 -0.11130489 253.98579943 -0.1267475 277.37543583 -0.15888214 C303.64146987 -0.19493783 329.90744119 -0.21429471 356.17350155 -0.20934343 C358.97275229 -0.20887344 361.77200303 -0.20846319 364.57125378 -0.20809174 C365.26052275 -0.20798935 365.94979172 -0.20788696 366.65994764 -0.20778148 C377.07651124 -0.20658538 387.4930072 -0.21857022 397.90955257 -0.23723602 C409.75240414 -0.25844714 421.59510862 -0.26188775 433.43797904 -0.24293643 C439.48414854 -0.23374987 445.53003459 -0.23272485 451.57618237 -0.25329208 C457.10614418 -0.27189592 462.63558829 -0.26761805 468.16552974 -0.24474627 C470.17087015 -0.24053363 472.17624944 -0.24484901 474.18154889 -0.25834221 C476.89885783 -0.2753876 479.61433552 -0.26189875 482.33157349 -0.24050903 C483.51100836 -0.25892532 483.51100836 -0.25892532 484.7142702 -0.27771366 C488.7377824 -0.21113376 490.51105678 0.20577622 493.67238384 2.78151178 C497.94690749 8.18950982 498.0124639 12.75360799 497.95575809 19.3960495 C497.95605015 20.29410812 497.9563422 21.19216675 497.9566431 22.11743927 C497.95525302 25.07718922 497.93970684 28.03668547 497.92401981 30.9963913 C497.92028855 33.05190646 497.91744211 35.1074234 497.91544437 37.16294098 C497.9078169 42.56672344 497.88817594 47.97039798 497.86603642 53.37413788 C497.84555896 58.89078563 497.83643859 64.40745085 497.82636356 69.92412567 C497.80492928 80.74383448 497.77080395 91.56346328 497.72870731 102.38311005 C499.49825552 100.94122113 501.26697766 99.49831838 503.03534794 98.05498505 C504.51291569 96.84987274 504.51291569 96.84987274 506.02033329 95.62041473 C508.84753969 93.28494626 511.55107555 90.88686962 514.22870731 88.38311005 C518.66795757 84.29698197 523.25703591 80.47061625 527.95526981 76.68779755 C531.8474801 73.45342562 535.53487324 70.01313313 539.22089481 66.54717255 C544.05169943 62.3785343 547.65744573 60.57671878 554.04756832 60.87516975 C557.13368183 61.45983224 558.27520509 62.29774143 560.54489994 64.42421722 C561.23251534 65.06163219 561.92013073 65.69904716 562.62858295 66.35577774 C563.32162399 67.0247974 564.01466503 67.69381706 564.72870731 68.38311005 C565.38014587 69.00716358 566.03158443 69.63121712 566.70276356 70.27418137 C568.77155262 72.28274429 570.81661899 74.31311611 572.85712528 76.3503952 C573.62561298 77.113918 574.39410069 77.8774408 575.18587589 78.66410065 C577.70030089 81.16404397 580.21092651 83.66775516 582.72089481 86.17217255 C583.58263435 87.03108471 584.44437389 87.88999687 585.33222675 88.77493668 C589.88245891 93.31024174 594.4298564 97.84836583 598.97480106 102.38896942 C603.66898468 107.07764331 608.37239134 111.75695089 613.07797909 116.43417549 C616.6997541 120.03735244 620.31482868 123.64719485 623.92808247 127.25891495 C625.6599725 128.9877772 627.39436468 130.71413668 629.13129139 132.43793869 C631.55353048 134.84315937 633.96616854 137.25762451 636.37665653 139.67461395 C637.09560596 140.3843486 637.8145554 141.09408325 638.55529118 141.82532501 C643.11982172 146.42861196 645.68117333 149.48353699 645.79120731 156.19561005 C644.4839679 163.90198791 637.64702856 168.62048801 631.67051029 172.94152451 C629.8715189 174.21037857 628.06736074 175.47140142 626.26013052 176.72849295 C570.57597871 215.68266623 503.35749491 267.88684731 490.51245236 338.25254756 C485.6292621 367.36235939 484.96919224 396.91665967 485.04120731 426.36748505 C485.04304775 427.68339811 485.04488819 428.99931118 485.0467844 430.35510039 C485.12499433 463.63530462 486.4717001 496.82460704 488.32597896 530.0479404 C489.45914217 550.40414329 490.23773715 570.74945068 490.74677372 591.13066864 C490.76441099 591.83203406 490.78204826 592.53339949 490.80022 593.25601841 C490.99471937 601.00566113 491.18081886 608.75548991 491.36264706 616.50543928 C491.68333698 630.1617036 492.03731692 643.81707572 492.40912724 657.47203827 C492.44487657 658.78900673 492.48062591 660.10597519 492.51745856 661.46285179 C493.05054094 680.82225066 493.77602797 700.16774843 494.65570927 719.51439667 C494.71020272 720.72052972 494.76469618 721.92666278 494.82084095 723.16934532 C495.33607841 734.53462851 495.86967754 745.89863282 496.45993561 757.26028298 C496.66655176 761.28460593 496.86097647 765.30946139 497.05303991 769.33450225 C497.18774172 772.05246737 497.34058838 774.76900132 497.49409294 777.48595786 C497.57216376 779.1128744 497.6492609 780.73983808 497.72519779 782.36685562 C497.77120729 783.08363257 497.81721678 783.80040953 497.86462051 784.53890699 C498.06791696 789.52097575 497.19263792 793.05189588 494.72870731 797.38311005 C490.71178074 800.93514186 486.476181 800.8083762 481.35277748 800.76622009 C480.50799574 800.77117961 479.66321401 800.77613912 478.79283282 800.78124893 C475.94900504 800.79424989 473.10564333 800.7858061 470.26180363 800.77751923 C468.20761052 800.78240599 466.15342017 800.78859479 464.09923452 800.79597712 C458.4440901 800.81242684 452.78908463 800.81004848 447.1339246 800.80460215 C441.03907205 800.80193816 434.94425707 800.8164518 428.84941959 800.8286972 C416.90524695 800.84977971 404.96112148 800.85430925 393.01693685 800.85250932 C383.31172296 800.85113699 373.60652383 800.85495028 363.90131283 800.86243439 C362.50765615 800.86348472 361.11399948 800.86453233 359.7203428 800.86557725 C358.68265862 800.86635627 358.68265862 800.86635627 357.62401112 800.86715102 C356.93096626 800.86767116 356.2379214 800.8681913 355.52387518 800.86872721 C354.82968296 800.8692512 354.13549075 800.86977519 353.42026241 800.87031506 C333.8920123 800.88490109 314.36376761 800.89317961 294.83551216 800.88856506 C294.09912914 800.88839311 293.36274612 800.88822115 292.60404847 800.88804399 C288.87164882 800.88715508 285.1392492 800.88621027 281.40684957 800.88524598 C280.29492196 800.88495943 280.29492196 800.88495943 279.16053118 800.88466709 C277.66147254 800.88428 276.16241391 800.88388967 274.66335528 800.88349611 C251.33394318 800.87752505 228.00463025 800.89296794 204.67524052 800.92510223 C178.47291427 800.96116303 152.27065091 800.98051413 126.06829828 800.97556353 C123.27550471 800.97509354 120.48271115 800.97468329 117.68991756 800.97431183 C117.00224566 800.97420944 116.31457377 800.97410706 115.60606332 800.97400157 C105.21662381 800.9728058 94.82725216 800.98478601 84.43783092 801.00345612 C72.62505112 801.02467359 60.81238854 801.02810153 48.99959356 801.00915653 C42.96949507 800.99997392 36.93968074 800.99893301 30.90960407 801.01951218 C25.39319928 801.03813057 19.87731319 801.03382148 14.36092871 801.01096636 C12.36165687 801.00675746 10.36234597 801.01105681 8.36311532 801.0245623 C5.65160332 801.04163698 2.94191999 801.02809425 0.23047829 801.00672913 C-0.55129442 801.01900665 -1.33306713 801.03128418 -2.13852993 801.04393375 C-6.07294503 800.97887821 -8.68524611 800.44731377 -11.74015337 798.03163385 C-15.66985631 793.91968643 -15.39543566 790.79712779 -15.3915472 785.302742 C-15.39282884 784.21471394 -15.39282884 784.21471394 -15.39413637 783.10470551 C-15.39578686 780.66794109 -15.39027683 778.23124511 -15.38481808 775.794487 C-15.38453609 774.05022432 -15.38469417 772.30596152 -15.38526058 770.56169891 C-15.38554809 765.82028189 -15.37965881 761.07889004 -15.37268662 756.33747888 C-15.36644541 751.38468824 -15.36584868 746.43189705 -15.36466122 741.47910309 C-15.36155017 732.09750768 -15.35333983 722.71592389 -15.34331173 713.3343336 C-15.33214357 702.6549041 -15.32663836 691.97547406 -15.32161629 681.29604018 C-15.31115704 659.32505698 -15.29356197 637.35408424 -15.27129269 615.38311005 C-16.05712231 615.07527588 -16.84295193 614.76744171 -17.65259457 614.45027924 C-19.97741554 613.50287056 -21.90166466 612.48205918 -24.00176144 611.12529755 C-24.70881222 610.67283661 -25.415863 610.22037567 -26.14433956 609.7542038 C-26.90810909 609.26049286 -27.67187862 608.76678192 -28.45879269 608.25811005 C-36.34597942 603.21578862 -44.28982508 598.27477031 -52.27129269 593.38311005 C-60.55541405 588.30055547 -68.80598146 583.17259222 -77.00957394 577.96123505 C-83.72494931 573.7054946 -90.49506434 569.54110579 -97.27129269 565.38311005 C-105.66001892 560.23533091 -114.02387039 555.05432364 -122.32598019 549.76787567 C-126.52509066 547.09870197 -130.74765217 544.47563147 -135.00176144 541.8948288 C-135.96299923 541.30919159 -136.92423702 540.72355438 -137.91460323 540.12017059 C-139.77534148 538.98871579 -141.63992002 537.86354494 -143.50884151 536.74565887 C-144.76797359 535.9783847 -144.76797359 535.9783847 -146.05254269 535.19561005 C-146.79568722 534.74830536 -147.53883175 534.30100067 -148.30449581 533.8401413 C-151.50441255 531.46959722 -153.01809737 529.14269599 -154.27129269 525.38311005 C-154.36971666 523.6608776 -154.41055449 521.93509982 -154.41846371 520.21007538 C-154.42561901 519.13905579 -154.43277431 518.06803619 -154.44014645 516.96456146 C-154.44283535 515.78945007 -154.44552425 514.61433868 -154.44829464 513.40361786 C-154.45486584 512.1659668 -154.46143703 510.92831573 -154.46820736 509.6531601 C-154.48795718 505.54751596 -154.49960842 501.44191091 -154.50957394 497.33623505 C-154.51362234 495.92140687 -154.51773929 494.50657888 -154.52192402 493.0917511 C-154.54097199 486.44371374 -154.55520339 479.79568746 -154.56353599 473.14762807 C-154.57330491 465.48074913 -154.59961675 457.81415916 -154.64003688 450.14738202 C-154.67022701 444.21689782 -154.68500763 438.28649631 -154.688317 432.35593677 C-154.69066437 428.81602828 -154.69958322 425.27642864 -154.72477818 421.73660278 C-154.75245422 417.78436859 -154.74821885 413.8325126 -154.74126339 409.88018036 C-154.75407345 408.71316589 -154.76688351 407.54615143 -154.78008175 406.34377289 C-154.7383224 399.83494621 -154.33496415 395.58741076 -150.27129269 390.38311005 C-146.3015281 387.56803786 -141.95327175 387.73245938 -137.27129269 388.38311005 C-133.81227138 389.54248127 -130.66064374 391.14983897 -127.43535519 392.84404755 C-126.51652554 393.3086438 -125.59769588 393.77324005 -124.65102291 394.25191498 C-121.72387436 395.73722037 -118.81027801 397.24717261 -115.89629269 398.75811005 C-113.97915275 399.73499871 -112.06118925 400.7102729 -110.14238644 401.6838913 C-100.24797115 406.71947776 -90.41511266 411.87084971 -80.59859371 417.0562973 C-75.19302647 419.90885762 -69.7567372 422.6869577 -64.27129269 425.38311005 C-56.98959083 428.99245086 -49.78156246 432.72101607 -42.60478878 436.53423309 C-36.67131329 439.67483121 -30.68776058 442.70490081 -24.67754269 445.69561005 C-23.76649776 446.15000458 -22.85545284 446.60439911 -21.9168005 447.07256317 C-19.70209334 448.17701031 -17.48692085 449.28051204 -15.27129269 450.38311005 C-15.27243185 449.44975006 -15.27357101 448.51639007 -15.27474469 447.55474645 C-15.34194905 392.274465 -15.3933294 336.99418732 -15.42448867 281.71387323 C-15.42824094 275.08091369 -15.43212389 268.44795423 -15.43608761 261.81499481 C-15.43647989 261.15492814 -15.43687216 260.49486146 -15.43727633 259.81479277 C-15.45046266 237.74680951 -15.47433815 215.67885211 -15.50275107 193.61088369 C-15.53077484 171.6626302 -15.54746252 149.71438935 -15.55355817 127.76611871 C-15.5576809 114.21555195 -15.57071675 100.66505331 -15.59504209 87.11450752 C-15.6108619 77.8308538 -15.61570158 68.54723545 -15.61179682 59.26356921 C-15.60986941 53.90202254 -15.6128884 48.54059515 -15.62890911 43.17906952 C-15.64345786 38.27450672 -15.64427785 33.37014395 -15.63398937 28.46557214 C-15.63271691 26.68756361 -15.63656492 24.90954283 -15.64594223 23.13155857 C-15.65791961 20.72120094 -15.65153079 18.31157261 -15.64043617 15.901227 C-15.64831721 15.20524138 -15.65619825 14.50925576 -15.66431811 13.79217967 C-15.60826833 8.43146632 -14.20929758 5.45802045 -10.60074848 1.59455442 C-7.15340969 -0.19825023 -3.79452907 -0.0310431 0 0 Z M8.72870731 24.38311005 C8.72870731 272.54311005 8.72870731 520.70311005 8.72870731 776.38311005 C28.85870731 776.38311005 48.98870731 776.38311005 69.72870731 776.38311005 C69.73805302 770.16894257 69.74739872 763.95477509 69.75702763 757.5522995 C69.79074399 737.05646445 69.84606084 716.5607302 69.91261005 696.06497669 C69.95244159 683.63431643 69.98481318 671.20371985 69.99970341 658.77300262 C70.01269858 647.94004263 70.03960862 637.10722251 70.08332038 626.27434129 C70.10598316 620.53689297 70.12161511 614.79961749 70.12059116 609.06212044 C70.1198474 603.66370163 70.13768397 598.26566561 70.16987514 592.86734581 C70.17840573 590.88440572 70.18010276 588.90142284 70.17451 586.91847229 C70.1678961 584.21351101 70.18572768 581.50977694 70.20972538 578.80493927 C70.20196496 578.01796813 70.19420455 577.23099699 70.18620896 576.42017823 C70.26445842 571.44714924 71.17069011 568.87213574 74.72870731 565.38311005 C78.72759809 562.75526754 82.06933094 563.4826332 86.54511356 564.28936005 C89.88319237 565.96138521 90.94808047 568.13063175 92.72870731 571.38311005 C93.11055008 574.34564787 93.2770906 576.93146376 93.24768925 579.88722992 C93.2551905 580.7294847 93.26269175 581.57173949 93.27042031 582.43951714 C93.29067647 585.25413746 93.28259892 588.06795062 93.27460575 590.88262177 C93.28334188 592.90319362 93.29382781 594.92375856 93.30593204 596.94431305 C93.33380757 602.4252429 93.33719638 607.90594717 93.33621216 613.38693762 C93.3393399 619.11651768 93.36495526 624.84599594 93.38819218 630.57552338 C93.42876623 641.42323299 93.44909623 652.27088246 93.46216607 663.11865628 C93.47803132 675.46927949 93.51644498 687.8198003 93.55675936 700.17036414 C93.63917766 725.57459871 93.69028113 750.97876822 93.72870731 776.38311005 C112.86870731 776.38311005 132.00870731 776.38311005 151.72870731 776.38311005 C151.75448856 769.58330536 151.78026981 762.78350067 151.80683231 755.7776413 C151.8319975 751.47096288 151.85832788 747.16435492 151.88886356 742.85771942 C151.93722463 736.02137223 151.98125939 729.1851881 151.99970341 722.34868622 C152.01484254 716.8371811 152.04923968 711.32610238 152.09701633 705.81478691 C152.11185839 703.71168663 152.11974994 701.60852548 152.12059116 699.505373 C152.12295403 696.56026576 152.14997934 693.61634341 152.18280888 690.67144012 C152.17526333 689.36592445 152.17526333 689.36592445 152.16756535 688.03403473 C152.23799429 683.9528266 152.40633881 681.89064248 154.64441776 678.36704254 C157.74616965 675.4146378 160.48507998 674.565206 164.72870731 674.38311005 C168.56541055 675.45235521 170.86444977 676.3254949 173.40090275 679.42942047 C175.24400635 683.52938822 175.16849434 687.1315685 175.16108036 691.57964325 C175.17127201 692.49720901 175.18146366 693.41477478 175.19196415 694.36014557 C175.22209273 697.3847896 175.23135998 700.40911692 175.24042606 703.4338913 C175.25727283 705.53425906 175.27542306 707.63461674 175.29482365 709.73496246 C175.34232988 715.25703023 175.37213535 720.77905711 175.39826298 726.3012619 C175.4333071 732.93020425 175.4903217 739.5589896 175.54365635 746.18780518 C175.62217755 756.25288697 175.67277801 766.31776313 175.72870731 776.38311005 C194.86870731 776.38311005 214.00870731 776.38311005 233.72870731 776.38311005 C233.74328983 768.95722382 233.75787235 761.53133759 233.77289677 753.8804245 C233.8216421 730.1274409 233.88504779 706.3745197 233.9576936 682.6215982 C233.96896192 678.93280887 233.98010035 675.24401916 233.99115849 671.55522919 C233.99336217 670.82084951 233.99556585 670.08646982 233.99783631 669.32983621 C234.03322032 657.43481638 234.05807822 645.53979662 234.07905433 633.64474366 C234.10080761 621.44167343 234.1338535 609.23867157 234.17740887 597.03565949 C234.20393381 589.50416404 234.22162295 581.97275379 234.22805335 574.44121393 C234.23392497 568.66854112 234.25549891 562.89600997 234.28298283 557.12340355 C234.29179529 554.75344564 234.29547904 552.38346241 234.29371548 550.01348877 C234.29207035 546.78326431 234.30869753 543.55363675 234.3299799 540.32349396 C234.32513232 539.38088488 234.32028474 538.43827581 234.31529027 537.46710283 C234.36817391 532.61931915 234.559996 529.31407107 237.72870731 525.38311005 C240.76116042 523.02453541 243.98936546 523.02377089 247.76386356 523.1292038 C250.68498524 523.50668473 252.47185255 524.52452377 254.72870731 526.38311005 C256.4688196 529.24859784 256.98024055 531.38499052 256.99042034 534.71717453 C256.99788583 535.58205404 257.00535133 536.44693354 257.01304305 537.33802152 C257.01014094 538.75630439 257.01014094 538.75630439 257.00718021 540.20323944 C257.01297262 541.21121102 257.01876502 542.2191826 257.02473295 543.25769877 C257.04177702 546.64491228 257.04461327 550.03198989 257.04755497 553.41924286 C257.05685009 555.84345078 257.06701814 558.2676555 257.07799625 560.69185638 C257.09968466 565.91597519 257.1152837 571.14007472 257.12536335 576.36422729 C257.13994734 583.91747553 257.16548335 591.47065547 257.19369464 599.02386364 C257.23916774 611.27835999 257.2757804 623.53286617 257.30683231 635.78740692 C257.33701573 647.69172135 257.37136504 659.59601174 257.4113245 671.50029755 C257.41501682 672.60092257 257.41501682 672.60092257 257.41878374 673.72378245 C257.4311583 677.40478167 257.44361484 681.08578061 257.45611215 684.76677942 C257.55968772 715.30552753 257.64725811 745.84429262 257.72870731 776.38311005 C277.52870731 776.38311005 297.32870731 776.38311005 317.72870731 776.38311005 C317.74328983 767.54392792 317.75787235 758.70474579 317.77289677 749.59770966 C317.82164984 721.31882665 317.88505772 693.03999351 317.9576936 664.76116216 C317.96896182 660.36895041 317.98010026 655.97673834 317.99115849 651.58452606 C317.99336217 650.71011211 317.99556585 649.83569815 317.99783631 648.9347868 C318.03321305 634.77459881 318.05807506 620.61441088 318.07905433 606.45419507 C318.10081338 591.92555645 318.1338648 577.3969752 318.17740887 562.86838537 C318.20392379 553.90276589 318.22162034 544.9372179 318.22805335 535.97156114 C318.23330772 529.82428499 318.24952635 523.67709881 318.27437297 517.52987086 C318.28838632 513.98271805 318.29755943 510.4357263 318.29371548 506.88854408 C318.28967319 503.04167687 318.30871593 499.19511975 318.3299799 495.34830475 C318.32270853 493.66881781 318.32270853 493.66881781 318.31529027 491.95540184 C318.38138878 484.72403895 318.99124212 479.52575962 323.89276981 473.89873505 C324.70487919 473.1510788 325.51698856 472.40342255 326.35370731 471.63311005 C330.76999441 467.3960346 334.65847725 462.981174 338.46698856 458.19561005 C339.94866602 456.35310958 341.46623852 454.5387813 343.02167606 452.75811005 C365.60147918 426.82632963 383.25948937 394.47149199 388.75995731 360.33623505 C389.9855531 356.60014466 391.72610745 354.87481978 394.72870731 352.38311005 C398.93751092 351.13605713 401.24896843 351.24718403 405.47870731 352.44561005 C409.45049717 354.81340784 410.45852124 355.9374588 411.72870731 360.38311005 C411.62387627 367.85232164 410.12397527 375.06387886 408.22870731 382.25811005 C407.96880009 383.24553192 407.70889286 384.2329538 407.44110966 385.25029755 C399.68078226 413.3685953 384.01078346 439.84728351 365.72870731 462.38311005 C364.96816044 463.33572723 364.20761356 464.28834442 363.42401981 465.2698288 C359.07126578 470.66935239 354.55606063 475.88438578 349.86933231 480.9963913 C349.16292606 481.78400848 348.45651981 482.57162567 347.72870731 483.38311005 C346.87195817 484.18273226 346.01520903 484.98235447 345.13249779 485.80620766 C341.43649976 490.30488186 342.05368242 495.43385429 342.12743473 501.00026703 C342.12316261 502.17737311 342.11889048 503.35447918 342.1144889 504.56725514 C342.10768517 507.82632275 342.12327778 511.08439221 342.14837921 514.34334183 C342.16999605 517.8606509 342.16266293 521.37791447 342.15886784 524.8952713 C342.1562476 530.98653277 342.17191878 537.0775262 342.20005703 543.16872025 C342.24071335 551.97548831 342.25371641 560.78212692 342.25999699 569.58897866 C342.27093684 583.87785112 342.30420261 598.16658075 342.35151005 612.45537567 C342.39741366 626.33460018 342.43280163 640.21378588 342.45404911 654.09307098 C342.45536273 654.94876237 342.45667635 655.80445376 342.45802977 656.6860752 C342.46455501 660.97887959 342.47087354 665.27168427 342.47708929 669.56448913 C342.5289127 705.17082295 342.62108264 740.77689258 342.72870731 776.38311005 C363.51870731 776.38311005 384.30870731 776.38311005 405.72870731 776.38311005 C405.74328983 770.05300751 405.75787235 763.72290497 405.77289677 757.20098114 C405.82316791 736.31799883 405.88959851 715.43509124 405.96442223 694.55218315 C406.00940419 681.88727271 406.04881335 669.22239054 406.07514286 656.55742645 C406.09810345 645.51975148 406.13147983 634.48216579 406.17740887 623.4445616 C406.20136715 617.59923894 406.22007889 611.75400485 406.22632122 605.90863419 C406.23236023 600.40767236 406.25231742 594.90693724 406.28298283 589.40605927 C406.29178202 587.38644865 406.29548175 585.36680843 406.29371548 583.34717941 C406.29206553 580.59020655 406.30873836 577.83392707 406.3299799 575.07704926 C406.32270853 573.87761612 406.32270853 573.87761612 406.31529027 572.653952 C406.38700937 567.01550197 407.5580129 562.88775745 411.35370731 558.50811005 C415.12047285 556.72385269 418.65069326 556.61407279 422.72870731 557.38311005 C426.29922941 559.31652554 428.42322698 561.46666904 429.72870731 565.38311005 C429.83459869 568.18142778 429.88355544 570.95547731 429.8869257 573.75424957 C429.89186367 574.6184424 429.89680165 575.48263522 429.90188926 576.3730157 C429.91729317 579.27961744 429.92563272 582.18619703 429.93402958 585.09282684 C429.94360583 587.17206264 429.95361576 589.25129648 429.96402836 591.33052826 C429.99111091 596.98511646 430.01210233 602.63971303 430.03203034 608.29433036 C430.05386925 614.20006325 430.08126818 620.10577023 430.10808659 626.01148224 C430.15804185 637.19927224 430.20297016 648.3870766 430.24610895 659.57489473 C430.29545712 672.30992654 430.35038422 685.04493237 430.40578854 697.77993906 C430.51965209 723.98097301 430.62574506 750.18203082 430.72870731 776.38311005 C444.58870731 776.38311005 458.44870731 776.38311005 472.72870731 776.38311005 C472.73457355 770.43306946 472.7404398 764.48302887 472.7464838 758.35268402 C472.78621265 719.06713143 472.82926976 679.78158538 472.88768864 640.4960556 C472.8886842 639.82584888 472.88967977 639.15564215 472.8907055 638.46512613 C472.91236318 623.90033015 472.93468581 609.33553527 472.9576936 594.77074137 C472.96897228 587.62834752 472.980104 580.48595346 472.99115849 573.34355927 C472.99226105 572.6327987 472.99336362 571.92203813 472.99449959 571.18973936 C473.03017906 548.14482217 473.05615059 525.09990643 473.077097 502.05497153 C473.09867028 478.37669889 473.13001912 454.69845888 473.17369844 431.0202162 C473.20182963 415.75920081 473.22133321 400.49822069 473.22805335 385.237179 C473.23329805 375.24052346 473.24948407 365.24392348 473.27437297 355.24729769 C473.28841944 349.47451767 473.29754705 343.70183718 473.29371548 337.929039 C473.29031618 332.64753256 473.3006069 327.36623904 473.32194283 322.08477624 C473.32723013 320.17082673 473.32742542 318.25685522 473.32210294 316.3429058 C473.31561698 313.74676978 473.32745283 311.1513423 473.34394646 308.55526543 C473.33766976 307.80735908 473.33139307 307.05945273 473.32492617 306.28888255 C473.38962871 300.7821221 474.59740804 296.62920998 478.42925358 292.59096527 C479.05006306 292.09746582 479.67087254 291.60396637 480.31049442 291.09551239 C481.01810917 290.51549973 481.72572392 289.93548706 482.45478153 289.33789825 C483.21420048 288.72117752 483.97361942 288.10445679 484.75605106 287.46904755 C507.28562395 268.52491626 507.28562395 268.52491626 516.42963505 241.59600067 C516.772798 235.0768205 516.85926476 228.55226109 516.74947453 222.02541351 C516.61710547 214.01738618 517.57961414 206.61919382 519.10370731 198.75811005 C519.42093754 197.04264984 519.42093754 197.04264984 519.74457645 195.29253387 C526.09895794 161.8490583 535.00577342 128.52128947 547.88642216 96.97393036 C549.04698723 94.4348056 549.04698723 94.4348056 547.72870731 92.38311005 C546.83732059 93.2010202 546.83732059 93.2010202 545.92792606 94.0354538 C541.47404458 98.08758547 536.97779546 102.03892509 532.29120731 105.82061005 C528.48783229 108.89647593 524.8278808 112.07064171 521.22870731 115.38311005 C516.76688524 119.4895096 512.15710578 123.34206808 507.43573856 127.1448288 C503.84314927 130.1153247 500.42538907 133.25811269 497.01776981 136.43779755 C493.27569547 139.61792216 489.70233372 142.01918616 484.72870731 142.38311005 C480.25218576 141.37817664 477.63824657 139.93921359 474.72870731 136.38311005 C473.7888532 133.5635477 473.5940206 131.80557353 473.57048893 128.88428497 C473.5558057 127.5023848 473.5558057 127.5023848 473.54082584 126.09256744 C473.53507038 125.08412277 473.52931492 124.0756781 473.52338505 123.0366745 C473.51348545 121.97309723 473.50358585 120.90951996 473.49338627 119.81371307 C473.46174907 116.29129528 473.43700497 112.76886399 473.41230106 109.2463913 C473.39173346 106.80686844 473.37073704 104.36734917 473.34932804 101.92783356 C473.29408739 95.50153753 473.24468686 89.07520925 473.19648075 82.64885712 C473.13745683 74.94123803 473.07121788 67.23367803 473.00618076 59.52610779 C472.90814618 47.81181123 472.81930716 36.0974771 472.72870731 24.38311005 C456.22870731 24.38311005 439.72870731 24.38311005 422.72870731 24.38311005 C422.71468876 33.70436127 422.71468876 33.70436127 422.700387 43.21392059 C422.66667064 63.70975564 422.61135378 84.20548989 422.54480457 104.7012434 C422.50497304 117.13190367 422.47260144 129.56250024 422.45771122 141.99321747 C422.44471604 152.82617747 422.417806 163.65899758 422.37409425 174.49187881 C422.35143147 180.22932713 422.33579952 185.9666026 422.33682346 191.70409966 C422.33756723 197.10251846 422.31973066 202.50055448 422.28753948 207.89887428 C422.27900889 209.88181438 422.27731186 211.86479725 422.28290462 213.8477478 C422.28951853 216.55270909 422.27168695 219.25644315 422.24768925 221.96128082 C422.25932987 223.14173754 422.25932987 223.14173754 422.27120566 224.34604186 C422.19300913 229.31570772 421.29634735 231.90418693 417.72870731 235.38311005 C414.6417591 237.21859277 412.84462787 237.38518006 409.22870731 237.32061005 C405.06704725 236.20587967 403.44892563 234.66337331 400.72870731 231.38311005 C399.14928007 228.22425556 399.57477442 224.829294 399.57048893 221.36000824 C399.56555095 220.52117116 399.56061298 219.68233407 399.55552536 218.81807768 C399.54009771 215.99128716 399.53177553 213.16451943 399.52338505 210.33769989 C399.51381066 208.31772408 399.50380084 206.29775028 399.49338627 204.27777863 C399.46628353 198.7801514 399.44530309 193.28251554 399.42538428 187.78485823 C399.40355777 182.04461298 399.37615281 176.30439451 399.34932804 170.56417084 C399.29935595 159.68800851 399.25443391 148.81183136 399.21130568 137.93563998 C399.15275392 123.24303863 399.08644285 108.55047247 399.0205555 93.85790253 C398.91691018 70.69966205 398.82366799 47.54139153 398.72870731 24.38311005 C366.05870731 24.38311005 333.38870731 24.38311005 299.72870731 24.38311005 C299.55830914 43.52969037 299.55830914 43.52969037 299.43085575 62.67656708 C299.40148457 65.08137171 299.37065854 67.4861592 299.33808231 69.89092255 C299.33695438 71.13414276 299.33582645 72.37736298 299.33466434 73.65825653 C299.15274686 84.6465166 299.15274686 84.6465166 294.72870731 89.38311005 C292.15875011 90.91448661 289.7085671 91.31083733 286.72870731 91.38311005 C282.14102497 90.02936771 279.05885691 88.65505097 276.72870731 84.38311005 C275.71838047 81.15858146 275.57650248 78.15754638 275.52338505 74.78838348 C275.50320316 73.65191376 275.48302128 72.51544403 275.46222782 71.34453583 C275.44575199 70.15585907 275.42927616 68.96718231 275.41230106 67.74248505 C275.39364994 66.64565399 275.37499882 65.54882294 275.35578251 64.41875458 C275.28751144 60.32362126 275.22734574 56.22835606 275.16620731 52.13311005 C275.02183231 42.97561005 274.87745731 33.81811005 274.72870731 24.38311005 C248.98870731 24.38311005 223.24870731 24.38311005 196.72870731 24.38311005 C196.73773075 34.08588348 196.74675419 43.78865692 196.75605106 53.7854538 C196.74618448 60.02442561 196.73452347 66.26331365 196.71503544 72.50225067 C196.68459181 82.35106938 196.66059541 92.19953593 196.68402958 102.04839325 C196.83156035 169.38708571 196.83156035 169.38708571 190.00517464 200.01047707 C188.08285429 208.88534686 187.2554652 217.92057417 186.35370731 226.94561005 C186.27154531 227.7575328 186.18938332 228.56945555 186.10473156 229.40598202 C184.37486992 246.58646862 183.49001217 263.67984367 183.47870731 280.94561005 C183.47803257 281.88209381 183.47735783 282.81857758 183.47666264 283.78343964 C183.52876417 329.6805096 188.79553671 381.09658555 221.53339481 416.27373505 C228.64369468 423.10569577 244.21994764 436.38311005 254.72870731 436.38311005 C256.89109803 440.70789149 257.3629351 444.63601116 256.72870731 449.38311005 C255.09183546 452.96863886 254.03898149 454.1762606 250.72870731 456.38311005 C240.06759134 459.03210424 230.01011344 451.53268291 221.30292606 446.3401413 C208.00494552 437.68589999 196.7876167 426.05091026 188.72870731 412.38311005 C188.29461552 411.64769989 187.86052372 410.91228973 187.41327763 410.15459442 C151.31229766 347.75472003 153.77565595 261.1948072 167.24033451 192.26511383 C171.08708171 172.45413223 172.57462919 153.52000239 172.33707094 133.36232018 C172.29846061 129.50418656 172.29595494 125.64599387 172.2889185 121.78769684 C172.27058229 114.54602439 172.22178977 107.30492327 172.16082156 100.06349772 C172.07992456 90.23263333 172.0485762 80.40160237 172.01380825 70.57048702 C171.95810699 55.17427026 171.83837516 39.77925654 171.72870731 24.38311005 C151.92870731 24.38311005 132.12870731 24.38311005 111.72870731 24.38311005 C111.71936161 30.56174774 111.71001591 36.74038544 111.700387 43.10625458 C111.6666629 63.49032405 111.61134143 83.87429226 111.54480457 104.2582798 C111.504982 116.62053014 111.47260583 128.98271653 111.45771122 141.34502411 C111.44471142 152.11903038 111.41778945 162.89289613 111.37409425 173.66682327 C111.35144194 179.37244556 111.3357989 185.07789427 111.33682346 190.78356552 C111.33756784 196.15326091 111.31970633 201.52257205 111.28753948 206.89216805 C111.27901667 208.86340012 111.27730664 210.83467518 111.28290462 212.80591774 C111.28953018 215.49739233 111.27165884 218.18763921 111.24768925 220.87899017 C111.25544966 221.65915753 111.26321008 222.43932488 111.27120566 223.24313366 C111.18949628 228.42540158 110.01902399 231.39761842 106.72870731 235.38311005 C103.62885205 237.3100471 101.89696077 237.3891191 98.22870731 237.25811005 C94.41194357 236.30391911 92.52942501 235.10145369 89.72870731 232.38311005 C88.14464708 229.21498957 88.57476627 225.80175002 88.57048893 222.32204437 C88.56308196 221.05766342 88.56308196 221.05766342 88.55552536 219.76773942 C88.54009746 216.92712934 88.53177546 214.08654196 88.52338505 211.24590302 C88.51381068 209.21607512 88.50380087 207.18624924 88.49338627 205.15642548 C88.46628331 199.63193954 88.44530299 194.10744502 88.42538428 188.58292913 C88.40355791 182.81465675 88.37615288 177.04641101 88.34932804 171.2781601 C88.29935577 160.34887375 88.2544338 149.41957265 88.21130568 138.49025738 C88.161972 126.05028499 88.10703955 113.61033932 88.05162609 101.17039275 C87.93773644 75.57465552 87.83165184 49.9788938 87.72870731 24.38311005 C61.65870731 24.38311005 35.58870731 24.38311005 8.72870731 24.38311005 Z " fill="#000000" transform="translate(154.2712926864624,-0.38311004638671875)"/>
<path d="M0 0 C35.83512339 29.01470989 48.00114393 91.13068327 52.61181641 134.37475586 C53.31928165 141.962234 53.3343543 149.56838964 53.31567383 157.18310547 C53.31251064 159.86597302 53.3361025 162.54773588 53.36132812 165.23046875 C53.41754375 180.40209526 51.94508946 195.46087471 47.375 210 C47.12266602 210.81484863 46.87033203 211.62969727 46.61035156 212.46923828 C41.7817121 227.39438486 34.76424692 240.74804686 25 253 C23.94039062 254.36898437 23.94039062 254.36898437 22.859375 255.765625 C15.32709944 264.8601503 4.65469527 272.40491875 -7 275 C-8.20269531 275.27070312 -8.20269531 275.27070312 -9.4296875 275.546875 C-23.39524127 278.00888752 -36.38841794 273.67568995 -48 266 C-56.09278457 259.87095988 -62.47167023 252.50416495 -68 244 C-68.53109375 243.21238281 -69.0621875 242.42476562 -69.609375 241.61328125 C-76.78737917 230.42077475 -84.94191616 213.62038417 -83 200 C-81.63845797 196.5205037 -80.40926552 195.29233251 -77.375 193.125 C-72.89415213 191.63138404 -69.49726138 191.48743187 -65 193 C-59.11494596 196.64502221 -57.82227835 203.28864497 -56.02099609 209.53051758 C-51.60392593 224.50784107 -43.91459187 238.50746997 -30.5 247.1875 C-23.98064929 250.56359233 -16.92248291 251.34171843 -9.75 249.38671875 C5.35620804 242.47319209 14.25550217 225.85961849 20.22998047 211.07177734 C38.48823997 161.94698657 26.40764331 99.0896208 5.29296875 52.8203125 C-2.61862466 33.57178315 -2.61862466 33.57178315 -17 20 C-25.12274515 27.63045756 -30.68756714 36.43747986 -35.75 46.3125 C-36.20087479 47.18894669 -36.20087479 47.18894669 -36.66085815 48.08309937 C-45.06090854 64.49097882 -51.54261489 81.5787168 -57.39453125 99.0390625 C-57.68415237 99.89999008 -57.9737735 100.76091766 -58.27217102 101.64793396 C-59.70516021 105.91515216 -61.11876159 110.18711499 -62.49829102 114.47192383 C-63.01673573 116.0425974 -63.5355187 117.61315937 -64.0546875 119.18359375 C-64.27828445 119.90008087 -64.50188141 120.61656799 -64.73225403 121.35476685 C-66.29265259 126.0123736 -68.25308326 128.83656115 -72 132 C-75.93035296 133.57517036 -79.28009779 133.23535265 -83.25 131.9375 C-86.57798075 129.59278629 -88.17774814 127.64450372 -90 124 C-90.44978453 118.3499075 -89.32039327 113.86974788 -87.578125 108.5859375 C-87.32234177 107.78652237 -87.06655853 106.98710724 -86.80302429 106.16346741 C-85.96495419 103.56289403 -85.1093579 100.96861125 -84.25 98.375 C-83.95755402 97.48450958 -83.66510803 96.59401917 -83.36380005 95.67654419 C-55.72252179 11.73867851 -55.72252179 11.73867851 -26 -4 C-16.6756093 -7.82966047 -8.15073846 -5.41289411 0 0 Z " fill="#000000" transform="translate(460,145)"/>
<path d="M0 0 C0.74765625 -0.03738281 1.4953125 -0.07476562 2.265625 -0.11328125 C5.88964038 0.50781573 8.26747032 1.65144864 10.75 4.3125 C12.99273254 8.20034373 14.66579502 12.29273583 16.375 16.4375 C17.1599077 18.26956604 17.94486019 20.1016149 18.73284912 21.93235779 C19.27298449 23.18937166 19.81092865 24.44732923 20.34674072 25.70619202 C37.09038289 65.04171443 56.10644155 107.34478165 85.88598633 138.67871094 C91.92262394 145.06351676 96.46735506 151.59001897 100.75 159.3125 C101.22050781 160.14265625 101.69101562 160.9728125 102.17578125 161.828125 C113.79874091 183.56269973 116.50243076 209.42591309 115.5 233.6875 C115.46165039 234.61941162 115.42330078 235.55132324 115.38378906 236.51147461 C114.60304564 250.61716088 114.60304564 250.61716088 110.6875 256.3125 C106.75317514 258.99118926 103.47455747 259.5958068 98.75 259.3125 C95.19798533 258.12849511 93.39929274 257.14205589 91.09765625 254.20141602 C89.36225592 250.48130874 89.4271239 247.22514972 89.5625 243.21484375 C89.58871502 241.60189345 89.61458087 239.98893744 89.64013672 238.37597656 C89.65880798 237.53812622 89.67747925 236.70027588 89.69671631 235.83703613 C90.3157003 205.78405188 87.60068895 177.73097448 66.1015625 154.828125 C45.78658926 133.09582805 31.41221391 106.51248271 17.75 80.3125 C17.27353027 79.40483887 16.79706055 78.49717773 16.30615234 77.56201172 C7.24503036 60.21904381 -0.48493549 42.26183978 -8.25 24.3125 C-8.52992798 23.67924301 -8.80985596 23.04598602 -9.0982666 22.39353943 C-11.39068939 17.16504618 -12.27472191 12.97641747 -11.25 7.3125 C-8.60629405 2.45591425 -5.46880337 0.17671303 0 0 Z " fill="#000000" transform="translate(235.25,367.6875)"/>
<path d="M0 0 C1.12258368 0.9555724 2.24422945 1.91224671 3.36547852 2.86938477 C3.99019547 3.40201431 4.61491241 3.93464386 5.25856018 4.4834137 C7.24820699 6.21615868 9.10452686 8.04035275 10.9375 9.9375 C14.79458515 13.83875024 18.82625735 17.44275244 23 21 C23.93457031 21.81210937 24.86914062 22.62421875 25.83203125 23.4609375 C51.20997391 45.3906162 80.54388622 67.30877724 114 74 C114 92.48 114 110.96 114 130 C105.01034807 125.50517404 105.01034807 125.50517404 101.9765625 123.546875 C101.27917969 123.10085938 100.58179687 122.65484375 99.86328125 122.1953125 C99.12464844 121.71835937 98.38601562 121.24140625 97.625 120.75 C89.79956594 115.75076604 81.91694144 110.85295229 74 106 C66.46975836 101.37988639 58.95721733 96.73714341 51.5 92 C42.94663597 86.56724302 34.32241661 81.25248946 25.68359375 75.95703125 C23.58694082 74.67104891 21.50843842 73.35507092 19.44775391 72.01220703 C16.76963732 70.44918218 14.5370671 69.40962489 11.67333984 68.35888672 C6.89746976 66.39910451 2.88086773 64.42821547 0 60 C-2.51594814 50.83581584 -1.58166616 40.907361 -1.09863281 31.49963379 C-0.93374861 27.9478892 -0.86163761 24.39432669 -0.78125 20.83984375 C-0.61058623 13.888749 -0.33825673 6.94490545 0 0 Z " fill="#483232" transform="translate(25,456)"/>
<path d="M0 0 C5.79835896 4.81437438 11.12281785 9.99248432 16.43359375 15.3359375 C17.31153091 16.21528961 18.18946808 17.09464172 19.0940094 18.00064087 C21.87754412 20.78974058 24.65756769 23.58231018 27.4375 26.375 C29.33216665 28.2752542 31.2275963 30.17474653 33.12304688 32.07421875 C37.75135161 36.71350604 42.37678421 41.35564167 47 46 C42.83174662 50.9721262 38.49244504 55.64720445 33.89306641 60.22045898 C32.86762726 61.24611717 32.86762726 61.24611717 31.82147217 62.29249573 C29.583867 64.52940983 27.34275155 66.76277089 25.1015625 68.99609375 C23.54050184 70.55528737 21.97966327 72.11470339 20.41903687 73.67433167 C16.32779371 77.7617722 12.23355542 81.8461996 8.13867188 85.92999268 C3.9539051 90.1044967 -0.22800241 94.28186292 -4.41015625 98.45898438 C-12.60398551 106.64211611 -20.80098392 114.82206539 -29 123 C-31.07174612 118.85650776 -29.08652506 113.13011809 -28.4375 108.6875 C-28.25477539 107.43509521 -28.07205078 106.18269043 -27.88378906 104.89233398 C-22.51664417 69.32058318 -13.65735398 33.37952508 0 0 Z " fill="#483232" transform="translate(723,108)"/>
<path d="M0 0 C3.70317768 2.96254214 5.53429058 5.54011788 7 10 C7.25447559 12.65997219 7.25447559 12.65997219 7.26069641 15.5721283 C7.26778122 16.68099899 7.27486603 17.78986969 7.28216553 18.93234253 C7.27968811 20.13923737 7.27721069 21.3461322 7.2746582 22.58959961 C7.2823246 24.50744514 7.2823246 24.50744514 7.29014587 26.46403503 C7.30351557 29.96405938 7.30411684 33.4639756 7.30158257 36.96402049 C7.30051152 39.88894598 7.30539965 42.81384972 7.310188 45.73877054 C7.32127608 52.64056091 7.32172448 59.54229684 7.31567383 66.4440918 C7.30963328 73.55768416 7.32194859 80.67107877 7.3432439 87.78463739 C7.36087193 93.89859461 7.36685938 100.01248894 7.36360615 106.12647063 C7.36179512 109.77522985 7.36441144 113.423848 7.37832069 117.07258415 C7.39325444 121.14218825 7.38391846 125.21139092 7.37231445 129.28100586 C7.38378006 131.08831177 7.38378006 131.08831177 7.39547729 132.93212891 C7.35022368 140.10432332 6.81337087 144.85564432 1.875 150.375 C-2.14500106 152.64717451 -5.48308564 152.6652183 -10 152 C-13.30260332 150.70767696 -14.59452715 149.58273501 -16.60855103 146.68823242 C-18.68294929 141.18974624 -18.41715577 135.94331995 -18.38818359 130.11328125 C-18.39344055 128.81506439 -18.39869751 127.51684753 -18.40411377 126.17929077 C-18.41775432 122.62968361 -18.41250237 119.08033895 -18.40297651 115.53072739 C-18.39536293 111.80994731 -18.40243024 108.08918919 -18.40713501 104.3684082 C-18.41258763 98.12089009 -18.40541396 91.87347849 -18.39111328 85.62597656 C-18.37478765 78.410675 -18.38007651 71.19562778 -18.3965925 63.98033237 C-18.41022149 57.77717447 -18.41212014 51.57409299 -18.40427649 45.37092495 C-18.39960772 41.66965505 -18.39895312 37.96850458 -18.40888596 34.26724243 C-18.41918835 30.14024882 -18.40489523 26.01369134 -18.38818359 21.88671875 C-18.39425629 20.66471771 -18.40032898 19.44271667 -18.40658569 18.1836853 C-18.32873095 7.81093071 -18.32873095 7.81093071 -15 3 C-10.32597745 -1.3724727 -6.12469978 -1.50431223 0 0 Z " fill="#000000" transform="translate(209,140)"/>
<path d="M0 0 C5.92379346 1.66853516 11.10032051 4.55664519 16.5 7.4375 C24.3720363 11.59448759 32.27371646 15.67166125 40.25 19.625 C47.87819302 23.411365 55.43654903 27.30756067 62.95800781 31.30126953 C69.41489004 34.71906203 75.94053036 37.98621908 82.48486328 41.23266602 C90.76920922 45.35529659 98.95131524 49.66562552 107.11914062 54.01367188 C109.06621187 55.0347217 111.03355566 56.01677783 113 57 C113 65.91 113 74.82 113 84 C86.75661293 80.2509447 63.6590603 59.45874816 44 43 C43.41299316 42.51208984 42.82598633 42.02417969 42.22119141 41.52148438 C29.39777463 30.8407236 17.31551575 19.34046226 5.4375 7.625 C4.88312256 7.08367432 4.32874512 6.54234863 3.75756836 5.98461914 C2.46518858 4.69516188 1.22646208 3.35230776 0 2 C0 1.34 0 0.68 0 0 Z " fill="#483232" transform="translate(26,421)"/>
</svg>
